<?xml version="1.0" encoding="utf-8"?>
<!-- Generator: Adobe Illustrator 19.2.0, SVG Export Plug-In . SVG Version: 6.00 Build 0)  -->
<svg version="1.1" id="Capa_1" xmlns="http://www.w3.org/2000/svg" xmlns:xlink="http://www.w3.org/1999/xlink" x="0px" y="0px"
	 viewBox="0 0 100 100" style="enable-background:new 0 0 100 100;" xml:space="preserve">
<style type="text/css">
	.st0{fill:#838383;}
	.st1{fill:#838383;stroke:#838383;stroke-miterlimit:10;}
	.st2{fill:#838383;stroke:#838383;stroke-width:1.5;stroke-miterlimit:10;}
</style>
<g transform="translate(0,-952.36218)">
	<path class="st1" d="M15.8,973.4v18h-4c-3.3,0-6,2.7-6,6v24c0,1,1,2,2,2h1v8c0,1,1,2,2,2h8c1,0,2-1,2-2v-8h54v8c0,1,1,2,2,2h8
		c1,0,2-1,2-2v-8h1c1,0,2-1,2-2v-24c0-3.3-2.7-6-6-6h-4v-18c0-1-1-2-2-2h-60C16.7,971.4,15.8,972.5,15.8,973.4z M19.8,975.4h56v16
		h-4v-8c0-1-1-2-2-2h-16c-1,0-2,1-2,2v8h-8v-8c0-1-1-2-2-2h-16c-1,0-2,1-2,2v8h-4V975.4z M27.8,985.4h12v6h-12V985.4z M55.8,985.4
		h12v6h-12V985.4z M11.8,995.4h72c1.1,0,2,0.9,2,2v8h-76v-8C9.8,996.2,10.7,995.4,11.8,995.4z M9.8,1009.4h76v10h-76V1009.4z
		 M12.8,1023.4h4v6h-4V1023.4z M78.8,1023.4h4v6h-4V1023.4z"/>
</g>
</svg>
