<?xml version="1.0" encoding="utf-8"?>
<!-- Generator: Adobe Illustrator 19.2.0, SVG Export Plug-In . SVG Version: 6.00 Build 0)  -->
<svg version="1.1" id="Capa_1" xmlns="http://www.w3.org/2000/svg" xmlns:xlink="http://www.w3.org/1999/xlink" x="0px" y="0px"
	 viewBox="0 0 100 100" style="enable-background:new 0 0 100 100;" xml:space="preserve">
<style type="text/css">
	.st0{fill:#838383;}
	.st1{fill:#838383;stroke:#838383;stroke-miterlimit:10;}
	.st2{fill:#838383;stroke:#838383;stroke-width:1.5;stroke-miterlimit:10;}
</style>
<path class="st1" d="M22,6c-3.3,0-6,2.7-6,6v56c0,3.3,2.7,6,6,6h21v16h-5c-0.1,0-0.1,0-0.2,0c-1.1,0.1-2,1-1.9,2.1s1,2,2.1,1.9h24
	c1.1,0,2-0.9,2-2c0-1.1-0.9-2-2-2c0,0,0,0-0.1,0h-5V74h21c3.3,0,6-2.7,6-6V12c0-3.3-2.7-6-6-6c-1.1,0-2,0.9-2,2c0,1.1,0.9,2,2,2
	c0,0,0,0,0.1,0c1.1,0,2,0.9,2,2v56c0,1.1-0.9,2-2,2H22c-1.1,0-2-0.9-2-2V12c0-1.1,0.9-2,2-2h48c1.1,0,2-0.9,2-2c0-1.1-0.9-2-2-2
	c0,0,0,0-0.1,0H22z M38.9,19c-2.1,0-3.7,1.2-4.5,3.1l0,0l-0.1,0.2l-5.8,11.9c0,0.1-0.1,0.1-0.1,0.2c-1.5,1.5-2.4,3.5-2.4,5.8V52
	c0,1.1,0.9,2,2,2h2v5c0,1.1,0.9,2,2,2h8c1.1,0,2-0.9,2-2v-5h16v5c0,1.1,0.9,2,2,2h8c1.1,0,2-0.9,2-2v-5h2c1.1,0,2-0.9,2-2V40.1
	c0-2.2-0.9-4.3-2.4-5.8c0-0.1,0-0.1-0.1-0.2l-5.8-11.9l-0.1-0.2l0,0c-0.8-1.9-2.4-3.1-4.5-3.1H38.9z M38.9,23h22.2
	c0.1,0,0.8,0.5,0.9,0.6c0,0.1,0,0.1,0.1,0.2l4,8.2H34l4-8.2c0-0.1,0-0.1,0.1-0.2C38.1,23.5,38.8,23,38.9,23z M33.8,36h32.4
	c2.1,0,3.8,1.7,3.8,4.1V50H30v-9.9C30,37.7,31.7,36,33.8,36z M33,40v6h5.2c1.6,0,2.8-1.3,2.8-3c0-1.7-1.3-3-2.8-3H33z M61.8,40
	c-1.6,0-2.8,1.3-2.8,3c0,1.7,1.3,3,2.8,3H67v-6H61.8z M34,54h4v3h-4V54z M62,54h4v3h-4V54z M47,74h6v16h-6V74z"/>
</svg>
