<?xml version="1.0" encoding="utf-8"?>
<!-- Generator: Adobe Illustrator 19.2.0, SVG Export Plug-In . SVG Version: 6.00 Build 0)  -->
<svg version="1.1" id="Capa_1" xmlns="http://www.w3.org/2000/svg" xmlns:xlink="http://www.w3.org/1999/xlink" x="0px" y="0px"
	 viewBox="0 0 100 100" style="enable-background:new 0 0 100 100;" xml:space="preserve">
<style type="text/css">
	.st0{fill:#838383;}
	.st1{fill:#838383;stroke:#838383;stroke-miterlimit:10;}
	.st2{fill:#838383;stroke:#838383;stroke-width:1.5;stroke-miterlimit:10;}
</style>
<g>
	<g>
		<path class="st2" d="M20.2,54.9h59.5c2.9,0,5.6,1.2,7.5,3.1c1.9,1.9,3.1,4.6,3.1,7.5v0c0,2.9-1.2,5.5-3.1,7.4
			c-1.9,1.9-4.5,3.1-7.4,3.2c-0.5,0-0.9-0.3-1-0.8h0c-0.4-1.7-1.3-3.2-2.6-4.2c-1.3-1-2.9-1.6-4.7-1.6c-1.8,0-3.4,0.6-4.7,1.6
			c-1.3,1-2.2,2.5-2.6,4.2c-0.1,0.5-0.5,0.8-1,0.8v0H36.6c-0.5,0-0.9-0.4-1-0.9c-0.4-1.7-1.3-3.1-2.6-4.2c-1.3-1-2.9-1.6-4.7-1.6
			c-1.8,0-3.4,0.6-4.7,1.6c-1.3,1-2.2,2.5-2.6,4.2c-0.1,0.5-0.6,0.8-1.1,0.8c-2.9-0.1-5.5-1.3-7.3-3.2c-1.9-1.9-3.1-4.5-3.1-7.4v0
			c0-2.9,1.2-5.6,3.1-7.5C14.6,56.1,17.3,54.9,20.2,54.9z M79.7,56.9H20.2c-2.4,0-4.5,1-6.1,2.5c-1.6,1.6-2.5,3.7-2.5,6.1v0
			c0,2.3,0.9,4.5,2.5,6c1.4,1.4,3.2,2.3,5.2,2.5c0.6-1.8,1.7-3.4,3.1-4.5c1.6-1.3,3.7-2.1,5.9-2.1c2.2,0,4.3,0.8,5.9,2.1
			c1.4,1.2,2.5,2.8,3.1,4.6h25.2c0.6-1.8,1.7-3.4,3.1-4.6c1.6-1.3,3.7-2.1,5.9-2.1c2.2,0,4.3,0.8,5.9,2.1c1.4,1.2,2.5,2.7,3.1,4.5
			c2-0.2,3.8-1.1,5.2-2.5c1.5-1.5,2.5-3.7,2.5-6v0c0-2.4-1-4.5-2.5-6.1C84.2,57.9,82,56.9,79.7,56.9z"/>
		<path class="st2" d="M18.4,19.1L18.4,19.1h48.5c0.4,0,0.8,0.3,0.9,0.7l14.5,35.7c0.2,0.5,0,1.1-0.6,1.3c-0.1,0.1-0.3,0.1-0.4,0.1
			v0h-63c-0.6,0-1-0.5-1-1v0V20.1C17.4,19.6,17.9,19.1,18.4,19.1z M66.2,21.1H19.4v33.7H80L66.2,21.1z"/>
		<path class="st2" d="M14.4,19.1h65.3v-5.4H14.4L14.4,19.1z M80.7,21.1H13.4h0c-0.6,0-1-0.5-1-1v-7.4v0c0-0.6,0.5-1,1-1h67.3h0
			c0.6,0,1,0.5,1,1v7.4v0C81.7,20.7,81.3,21.1,80.7,21.1z"/>
		<path class="st2" d="M28.3,67.4c2.6,0,5,1.1,6.7,2.8l0,0c1.7,1.7,2.8,4.1,2.8,6.7c0,2.6-1.1,5-2.8,6.7L35,83.6
			c-1.7,1.7-4,2.7-6.6,2.7c-2.6,0-5-1.1-6.7-2.8l0,0l0,0c-1.7-1.7-2.8-4.1-2.8-6.7c0-2.6,1.1-5,2.8-6.7l0.1-0.1
			C23.4,68.4,25.8,67.4,28.3,67.4z M33.6,71.6c-1.3-1.3-3.2-2.2-5.3-2.2c-2,0-3.9,0.8-5.2,2.1l-0.1,0.1c-1.3,1.3-2.2,3.2-2.2,5.3
			c0,2.1,0.8,3.9,2.2,5.3c1.3,1.3,3.2,2.2,5.3,2.2c2,0,3.9-0.8,5.2-2.1l0,0c1.3-1.3,2.2-3.2,2.2-5.3C35.8,74.8,34.9,72.9,33.6,71.6
			L33.6,71.6L33.6,71.6z M71.6,67.4c2.6,0,5,1.1,6.7,2.8l0,0c1.7,1.7,2.8,4.1,2.8,6.7c0,2.6-1.1,5-2.8,6.7l-0.1,0.1
			c-1.7,1.7-4,2.7-6.6,2.7c-2.6,0-5-1.1-6.7-2.8l0,0l0,0c-1.7-1.7-2.8-4.1-2.8-6.7c0-2.6,1.1-5,2.8-6.7l0.1-0.1
			C66.6,68.4,69,67.4,71.6,67.4z M76.8,71.6c-1.3-1.3-3.2-2.2-5.3-2.2c-2,0-3.9,0.8-5.2,2.1l-0.1,0.1c-1.3,1.3-2.2,3.2-2.2,5.3
			c0,2.1,0.8,3.9,2.2,5.3c1.3,1.3,3.2,2.2,5.3,2.2c2,0,3.9-0.8,5.2-2.1l0,0c1.3-1.3,2.2-3.2,2.2-5.3C79,74.8,78.2,72.9,76.8,71.6
			L76.8,71.6L76.8,71.6z"/>
		<path class="st2" d="M82.1,55.1c0.4,0.3,0.5,1,0.2,1.4s-1,0.5-1.4,0.2L64.3,43.4l-3.8,4c-0.4,0.4-1,0.4-1.4,0
			c-0.4-0.4-0.4-1,0-1.4l4.5-4.7l0,0l4.4-4.6c0.4-0.4,1-0.4,1.4,0c0.4,0.4,0.4,1,0,1.4L65.7,42L82.1,55.1z"/>
		<path class="st2" d="M27.2,36.3c0-0.6,0.5-1,1-1c0.6,0,1,0.5,1,1v7.3c0,0.5,0.2,1,0.6,1.4l0,0c0.4,0.4,0.8,0.6,1.4,0.6h5.2h1.5
			c1.1,0,2.1,0.4,2.8,1.2c0.7,0.7,1.2,1.7,1.2,2.8v6.1c0,0.6-0.5,1-1,1s-1-0.5-1-1v-6.1c0-0.5-0.2-1-0.6-1.4
			c-0.4-0.4-0.8-0.6-1.4-0.6h-1.5h-5.2c-1.1,0-2.1-0.4-2.8-1.2l0,0l0,0c-0.7-0.7-1.2-1.7-1.2-2.8L27.2,36.3z"/>
		<path class="st2" d="M28.4,62.1c-0.6,0-1-0.5-1-1s0.5-1,1-1h43.1c0.6,0,1,0.5,1,1s-0.5,1-1,1H28.4z"/>
		<path class="st2" d="M39.9,68.2c-0.6,0-1-0.5-1-1s0.5-1,1-1h20c0.6,0,1,0.5,1,1s-0.5,1-1,1H39.9z"/>
		<path class="st2" d="M37.2,49c0.6,0,1,0.5,1,1s-0.5,1-1,1h-7.3c-0.6,0-1-0.5-1-1s0.5-1,1-1H37.2z"/>
	</g>
</g>
</svg>
