<?xml version="1.0" encoding="utf-8"?>
<!-- Generator: Adobe Illustrator 19.2.0, SVG Export Plug-In . SVG Version: 6.00 Build 0)  -->
<svg version="1.1" id="Capa_1" xmlns="http://www.w3.org/2000/svg" xmlns:xlink="http://www.w3.org/1999/xlink" x="0px" y="0px"
	 viewBox="0 0 100 100" style="enable-background:new 0 0 100 100;" xml:space="preserve">
<style type="text/css">
	.st0{fill:#838383;}
	.st1{fill:#838383;stroke:#838383;stroke-miterlimit:10;}
	.st2{fill:#838383;stroke:#838383;stroke-width:1.5;stroke-miterlimit:10;}
</style>
<path class="st1" d="M35.6,18.4c4.4,0,8,3.6,8,8s-3.6,8-8,8h-16c-6.6,0-12-5.4-12-12s5.4-12,12-12c5.7,0,10.4,3.9,11.7,9.3
	C32.5,18.9,34,18.4,35.6,18.4z M19.6,13.1c-5.2,0-9.3,4.2-9.3,9.3s4.2,9.3,9.3,9.3h16c2.9,0,5.3-2.4,5.3-5.3s-2.4-5.3-5.3-5.3
	c-1.6,0-3.1,0.7-4.1,1.9c-0.6,0.7-1.6,0.6-2.1-0.1c-0.1-0.1-0.1-0.2-0.2-0.4c-0.1-0.2-0.2-0.4-0.2-0.6c0-0.1,0-0.2,0-0.2
	C28.5,16.8,24.4,13.1,19.6,13.1z M56.9,31.7h1.3c2.9,0,5.3,2.4,5.3,5.3v4c0,0.7-0.6,1.3-1.3,1.3H48.9c-0.7,0-1.3-0.6-1.3-1.3v-4
	c0-2.9,2.4-5.3,5.3-5.3h1.3v-1.3c0-6.6,5.4-12,12-12h6.7c6.6,0,12,5.4,12,12v62.7h9.3c0.7,0,1.3,0.6,1.3,1.3c0,0.7-0.6,1.3-1.3,1.3
	H8.9c-0.7,0-1.3-0.6-1.3-1.3c0-0.7,0.6-1.3,1.3-1.3h14.7v-8h-5.3c-0.7,0-1.3-0.6-1.3-1.3c0-0.7,0.6-1.3,1.3-1.3h5.3V65.1
	c0-0.7,0.6-1.3,1.3-1.3h37.3c0.7,0,1.3,0.6,1.3,1.3v17.3h5.3c0.7,0,1.3,0.6,1.3,1.3c0,0.7-0.6,1.3-1.3,1.3h-5.3v8h18.7V30.4
	c0-5.1-4.2-9.3-9.3-9.3h-6.7c-5.1,0-9.3,4.2-9.3,9.3V31.7z M26.2,93.1h34.7v-8H26.2V93.1z M26.2,73.1h34.7v-6.7H26.2V73.1z
	 M26.2,82.4h34.7v-6.7H26.2V82.4z M60.9,39.7v-2.7c0-1.5-1.2-2.7-2.7-2.7h-5.3c-1.5,0-2.7,1.2-2.7,2.7v2.7H60.9z"/>
</svg>
