<?xml version="1.0" encoding="utf-8"?>
<!-- Generator: Adobe Illustrator 19.2.0, SVG Export Plug-In . SVG Version: 6.00 Build 0)  -->
<svg version="1.1" id="Capa_1" xmlns="http://www.w3.org/2000/svg" xmlns:xlink="http://www.w3.org/1999/xlink" x="0px" y="0px"
	 viewBox="0 0 100 100" style="enable-background:new 0 0 100 100;" xml:space="preserve">
<style type="text/css">
	.st0{fill:#838383;}
	.st1{fill:#838383;stroke:#838383;stroke-miterlimit:10;}
	.st2{fill:#838383;stroke:#838383;stroke-width:1.5;stroke-miterlimit:10;}
</style>
<g>
	<path class="st0" d="M93.1,52.7c0-0.1,0-0.1,0-0.2L82.7,18.2c-0.8-2.8-3.8-4.4-6.5-3.5c-1.7,0.5-3,1.8-3.5,3.5l-6.7,21.9L55.5,5.9
		c-0.9-3.1-4.2-4.9-7.3-3.9c-1.9,0.6-3.4,2-3.9,3.9L33.9,40.1l-6.7-21.9c-0.8-2.8-3.8-4.4-6.5-3.5c-1.7,0.5-3,1.8-3.5,3.5L6.7,52.4
		c0,0.1,0,0.1,0,0.2c-1.5,8.5,4.1,16.7,12.6,18.2c0.5,0.1,1,0.2,1.5,0.2v24.7H13c-0.9,0-1.7,0.8-1.7,1.7c0,0.9,0.8,1.7,1.7,1.7h35.9
		c0.3,0.1,0.7,0.1,1,0h36.8c0.9,0,1.7-0.8,1.7-1.7c0-0.9-0.8-1.7-1.7-1.7H79V71c8.6-0.7,15-8.3,14.3-16.9
		C93.3,53.6,93.2,53.2,93.1,52.7z M47.5,6.8c0.4-1.3,1.8-2.1,3.1-1.7c0.8,0.2,1.4,0.9,1.7,1.7l11.9,39.1l-2,6.5c0,0.1,0,0.2,0,0.2
		c-0.3,1.7-0.3,3.4-0.1,5.1c-0.3,0.4-0.5,0.8-0.9,1.1c-2.5,3-6.1,4.9-10.1,5.2V61l7.2-7.2c0.6-0.7,0.6-1.7-0.1-2.4
		c-0.6-0.6-1.6-0.6-2.3,0l-5,4.9v-7.8c0.1-0.3,0.1-0.7,0-1.1V36.1c0-0.9-0.8-1.7-1.7-1.7c-0.9,0-1.7,0.8-1.7,1.7v7.6L43.1,39
		c-0.7-0.6-1.7-0.6-2.4,0.1c-0.6,0.6-0.6,1.6,0,2.3l7,7v15.5c-3.6-0.5-6.9-2.3-9.2-5.1c-0.3-0.4-0.6-0.8-0.9-1.1
		c0.2-1.7,0.2-3.4-0.1-5c0-0.1,0-0.1,0-0.2l-2-6.5L47.5,6.8z M12.7,63.3c-2.3-2.8-3.3-6.4-2.7-10l10.4-34.2c0.3-1,1.4-1.6,2.4-1.3
		c0.6,0.2,1.1,0.7,1.3,1.3l8.1,26.7v0.1c0,0.1,0,0.1,0,0.2c-0.8,4.2,0,8.4,2.1,12.1c-1.2,4.8-5.1,8.5-10,9.3V54.7l5.9-5.9
		c0.6-0.7,0.6-1.7-0.1-2.4c-0.6-0.6-1.6-0.6-2.3,0L24.2,50v-5.8c0-0.9-0.8-1.7-1.7-1.7s-1.7,0.8-1.7,1.7v9.5c-0.1,0.3-0.1,0.6,0,0.9
		v6.1l-3.7-3.7c-0.7-0.6-1.7-0.6-2.4,0.1c-0.6,0.6-0.6,1.6,0,2.3l6.1,6.1v2.2C17.7,67.3,14.7,65.7,12.7,63.3z M24.2,70.9
		c5.5-0.7,10.1-4.3,12.3-9.3c2.9,3.2,6.9,5.2,11.2,5.7v28.4H24.2V70.9z M51.1,95.7V67.4c4.6-0.3,9-2.4,12.1-5.8
		c2.2,5.1,6.8,8.6,12.3,9.3v24.8H51.1z M87.1,63.3c-2,2.4-5,4-8.1,4.4v-2.2l6.1-6.1c0.6-0.7,0.6-1.7-0.1-2.4c-0.6-0.6-1.6-0.6-2.3,0
		L79,60.6v-6.1c0.1-0.3,0.1-0.6,0-0.9v-9.5c0-0.9-0.8-1.7-1.7-1.7s-1.7,0.8-1.7,1.7V50l-3.6-3.6c-0.7-0.6-1.7-0.6-2.4,0.1
		c-0.6,0.6-0.6,1.6,0,2.3l5.9,5.9v12.8c-4.9-0.8-8.8-4.5-10-9.3c2.1-3.6,2.9-7.9,2.2-12.1c0-0.1,0-0.1,0-0.2v-0.1l8-26.8
		c0.3-1,1.4-1.6,2.4-1.3c0.6,0.2,1.1,0.7,1.3,1.3l10.4,34.1C90.5,56.8,89.5,60.5,87.1,63.3z"/>
</g>
</svg>
